<?xml version="1.0" standalone="no"?>
<!DOCTYPE svg PUBLIC "-//W3C//DTD SVG 20010904//EN"
 "http://www.w3.org/TR/2001/REC-SVG-20010904/DTD/svg10.dtd">
<svg version="1.0" xmlns="http://www.w3.org/2000/svg"
 width="500.000000pt" height="500.000000pt" viewBox="0 0 500.000000 500.000000"
 preserveAspectRatio="xMidYMid meet">
<metadata>
Created by potrace 1.16, written by Peter Selinger 2001-2019
</metadata>
<g transform="translate(0.000000,500.000000) scale(0.100000,-0.100000)"
fill="#000000" stroke="none">
<path d="M2329 3988 c-85 -57 -190 -129 -234 -160 -136 -93 -199 -138 -220
-152 -11 -8 -54 -38 -95 -66 -343 -234 -555 -380 -565 -387 -5 -5 -68 -48
-140 -96 -71 -49 -175 -119 -230 -157 -55 -39 -108 -75 -119 -82 -43 -30 -91
-70 -104 -89 -11 -16 -12 -26 -2 -50 7 -16 21 -34 31 -39 10 -6 106 -10 214
-10 192 0 197 1 216 23 23 28 24 69 1 97 -14 18 -29 22 -80 23 -34 1 -62 5
-62 9 0 3 39 33 88 65 99 68 223 153 330 227 41 28 98 67 127 86 29 19 68 46
88 60 19 14 75 52 124 85 48 33 90 62 93 65 3 3 34 25 70 49 36 24 91 63 123
85 32 23 66 46 75 51 37 23 138 91 148 100 13 12 176 125 202 140 10 6 32 20
49 33 17 12 36 22 42 22 10 0 154 -93 171 -110 3 -3 32 -23 65 -45 33 -22 65
-44 70 -48 6 -4 64 -45 130 -90 66 -45 146 -100 178 -122 32 -22 65 -44 75
-50 9 -5 30 -20 45 -32 49 -39 105 -25 127 31 5 15 10 105 10 201 0 203 -21
182 173 177 l127 -3 0 -337 c0 -249 4 -343 13 -362 12 -23 48 -50 280 -206 53
-36 97 -69 97 -72 0 -4 -24 -7 -54 -8 -72 0 -106 -23 -106 -69 0 -22 8 -41 22
-55 20 -19 34 -20 224 -20 l202 0 16 25 c41 63 11 103 -148 199 -17 10 -32 22
-34 27 -2 5 -8 9 -13 9 -5 0 -45 26 -89 58 -44 31 -110 77 -146 102 -36 25
-77 54 -90 65 l-24 20 -3 368 -2 369 -24 19 c-23 19 -39 20 -277 17 -231 -3
-254 -5 -273 -22 -20 -18 -21 -29 -21 -178 0 -134 -2 -158 -15 -158 -8 0 -15
5 -15 10 0 6 -5 10 -10 10 -6 0 -50 28 -98 63 -48 35 -104 73 -125 86 -21 13
-43 28 -50 35 -6 6 -43 31 -81 56 -38 24 -74 49 -80 55 -31 28 -214 145 -237
150 -22 5 -53 -11 -180 -97z"/>
<path d="M2206 2742 c-3 -2 -40 -8 -83 -13 -156 -20 -363 -104 -496 -203 -98
-72 -141 -116 -222 -224 -40 -53 -75 -92 -85 -92 -51 0 -170 -87 -170 -125 0
-8 -4 -15 -9 -15 -16 0 -24 -84 -11 -126 6 -21 20 -70 30 -109 10 -38 27 -96
38 -128 14 -40 17 -67 12 -85 -20 -63 -39 -141 -50 -197 -6 -33 -16 -68 -21
-78 -6 -10 -13 -40 -16 -67 -5 -47 -4 -49 28 -70 30 -18 48 -20 158 -19 123 1
124 1 167 -30 66 -46 142 -65 241 -58 81 5 140 27 194 74 14 12 158 14 916 13
894 0 899 0 921 20 l22 21 0 649 c0 743 10 672 -97 702 -234 66 -514 76 -753
27 -123 -26 -186 -48 -198 -71 -7 -15 -11 -116 -11 -298 0 -151 0 -375 0 -497
l-1 -223 -96 0 -95 0 -15 35 c-8 19 -14 66 -14 105 0 83 14 118 84 209 26 34
52 76 57 94 13 45 11 283 -2 326 -19 61 -49 118 -78 145 -32 30 -115 56 -155
49 -31 -6 -56 -38 -56 -71 0 -30 43 -72 74 -72 59 0 91 -93 85 -246 l-4 -89
-52 -69 c-73 -95 -93 -155 -94 -273 -1 -113 20 -186 66 -240 l33 -38 131 -3
c120 -3 131 -5 131 -22 0 -10 -9 -21 -20 -25 -22 -7 -625 -5 -652 2 -14 3 -16
8 -8 23 14 25 11 178 -3 215 -30 76 -70 132 -122 170 -76 55 -135 75 -224 75
-108 0 -181 -29 -253 -101 -32 -32 -60 -54 -63 -50 -2 5 -15 44 -29 87 -77
253 -78 261 -23 294 30 19 52 20 458 20 l426 0 21 23 c27 29 28 71 2 97 -19
19 -33 20 -355 20 -200 0 -335 4 -335 9 0 5 39 50 88 99 209 215 479 306 826
280 66 -5 130 -7 142 -4 36 9 49 41 35 87 -13 43 -11 42 -131 59 -69 10 -275
12 -284 2z m1265 -263 c37 -6 86 -16 110 -23 l44 -13 3 -537 c1 -351 -1 -544
-8 -556 -10 -18 -25 -19 -383 -16 -204 2 -373 4 -374 5 -5 2 -3 1111 1 1111 3
0 38 7 78 16 140 31 372 37 529 13z m-1682 -830 c100 -56 138 -184 85 -285
-57 -109 -176 -153 -279 -105 -81 39 -125 101 -130 187 -11 172 173 288 324
203z"/>
<path d="M3191 2214 c-17 -14 -31 -30 -31 -35 0 -6 -5 -15 -11 -22 -6 -7 -27
-37 -47 -68 -20 -31 -56 -85 -79 -120 -47 -70 -55 -115 -25 -142 16 -14 43
-17 161 -17 l142 0 -18 -28 c-10 -15 -22 -34 -28 -43 -5 -9 -27 -40 -47 -70
-43 -61 -47 -95 -18 -127 26 -27 80 -29 102 -4 36 40 206 302 212 326 6 26 -7
64 -28 78 -6 4 -73 8 -148 8 l-138 0 30 48 c17 26 36 56 43 67 7 11 15 22 19
25 4 3 14 22 23 42 19 46 7 84 -30 98 -39 15 -50 13 -84 -16z"/>
<path d="M1615 1616 c-62 -28 -105 -92 -105 -157 0 -40 32 -69 75 -69 36 0 60
22 70 63 4 15 13 27 21 27 17 0 56 21 66 35 4 6 8 27 8 47 0 31 -5 40 -30 53
-35 18 -65 19 -105 1z"/>
<path d="M970 1030 c-15 -21 -20 -38 -15 -58 13 -59 -82 -56 1535 -57 858 -1
1495 2 1510 7 13 5 28 15 32 21 13 20 8 71 -8 92 -15 20 -28 20 -1524 22
l-1509 3 -21 -30z"/>
</g>
</svg>
